<svg width="47" height="36" viewBox="0 0 47 36" fill="none" xmlns="http://www.w3.org/2000/svg">
<path d="M45.6148 16.9877C43.5435 7.28714 40.4263 2.10957 35.8023 0.695297C34.8303 0.399948 33.8221 0.252394 32.8091 0.257258C31.4703 0.257258 30.3043 0.595145 29.0709 0.953265C27.5845 1.38523 25.8961 1.87588 23.4341 1.87588C20.9722 1.87588 19.2828 1.38625 17.7935 0.954277C16.5591 0.595145 15.3941 0.257258 14.0591 0.257258C13.0117 0.253495 11.9688 0.400579 10.9605 0.694286C6.3609 2.10249 3.24566 7.27803 1.1441 16.9817C-1.11566 27.4238 -0.00335979 34.0167 4.26324 35.5463C4.84809 35.7598 5.46344 35.8699 6.08355 35.872C9.00641 35.872 11.3502 33.35 12.9517 31.2852C14.7613 28.9484 16.8795 27.7627 23.4341 27.7627C29.2886 27.7627 31.7115 28.5852 33.8043 31.2852C35.1197 32.9828 36.3629 34.1704 37.6031 34.918C39.2525 35.9115 40.9009 36.132 42.5015 35.5625C45.023 34.6712 46.4683 32.3151 46.7984 28.5579C47.0494 25.6767 46.6627 21.8922 45.6148 16.9877ZM18.7466 16.4435H15.6216V19.6807C15.6216 20.11 15.457 20.5217 15.164 20.8253C14.871 21.1288 14.4735 21.2994 14.0591 21.2994C13.6447 21.2994 13.2473 21.1288 12.9543 20.8253C12.6613 20.5217 12.4966 20.11 12.4966 19.6807V16.4435H9.37164C8.95724 16.4435 8.55981 16.273 8.26679 15.9694C7.97376 15.6658 7.80914 15.2541 7.80914 14.8249C7.80914 14.3956 7.97376 13.9839 8.26679 13.6803C8.55981 13.3768 8.95724 13.2062 9.37164 13.2062H12.4966V9.96899C12.4966 9.53971 12.6613 9.12801 12.9543 8.82446C13.2473 8.5209 13.6447 8.35037 14.0591 8.35037C14.4735 8.35037 14.871 8.5209 15.164 8.82446C15.457 9.12801 15.6216 9.53971 15.6216 9.96899V13.2062H18.7466C19.161 13.2062 19.5585 13.3768 19.8515 13.6803C20.1445 13.9839 20.3091 14.3956 20.3091 14.8249C20.3091 15.2541 20.1445 15.6658 19.8515 15.9694C19.5585 16.273 19.161 16.4435 18.7466 16.4435ZM26.9498 16.8481C26.5635 16.8481 26.1859 16.7295 25.8647 16.5072C25.5435 16.2848 25.2931 15.9688 25.1453 15.5991C24.9975 15.2294 24.9588 14.8226 25.0342 14.4301C25.1095 14.0377 25.2955 13.6771 25.5687 13.3942C25.8418 13.1112 26.1899 12.9185 26.5687 12.8405C26.9476 12.7624 27.3403 12.8025 27.6972 12.9556C28.0541 13.1087 28.3591 13.3681 28.5737 13.7008C28.7883 14.0335 28.9029 14.4247 28.9029 14.8249C28.9029 15.3615 28.6971 15.8761 28.3308 16.2555C27.9646 16.635 27.4678 16.8481 26.9498 16.8481ZM31.2466 21.2994C30.8601 21.2994 30.4823 21.1806 30.161 20.958C29.8397 20.7355 29.5894 20.4192 29.4417 20.0492C29.294 19.6792 29.2557 19.2721 29.3314 18.8795C29.4072 18.4869 29.5937 18.1264 29.8673 17.8436C30.1409 17.5609 30.4894 17.3686 30.8686 17.2911C31.2478 17.2136 31.6407 17.2544 31.9975 17.4083C32.3543 17.5622 32.659 17.8223 32.873 18.1557C33.087 18.4891 33.2007 18.8808 33.1998 19.2811C33.1985 19.8169 32.9921 20.3302 32.626 20.7085C32.2598 21.0869 31.7638 21.2994 31.2466 21.2994ZM31.2466 12.3969C30.8604 12.3969 30.4827 12.2783 30.1615 12.0559C29.8404 11.8336 29.59 11.5176 29.4422 11.1479C29.2944 10.7782 29.2557 10.3714 29.331 9.97893C29.4064 9.58645 29.5924 9.22594 29.8656 8.94298C30.1387 8.66002 30.4867 8.46732 30.8656 8.38925C31.2445 8.31118 31.6372 8.35125 31.9941 8.50438C32.351 8.65752 32.656 8.91685 32.8706 9.24958C33.0852 9.5823 33.1998 9.97348 33.1998 10.3736C33.1998 10.9103 32.994 11.4249 32.6277 11.8043C32.2614 12.1838 31.7646 12.3969 31.2466 12.3969ZM35.5435 16.8481C35.1572 16.8481 34.7796 16.7295 34.4584 16.5072C34.1372 16.2848 33.8869 15.9688 33.7391 15.5991C33.5912 15.2294 33.5526 14.8226 33.6279 14.4301C33.7033 14.0377 33.8893 13.6771 34.1624 13.3942C34.4356 13.1112 34.7836 12.9185 35.1625 12.8405C35.5414 12.7624 35.9341 12.8025 36.2909 12.9556C36.6478 13.1087 36.9529 13.3681 37.1675 13.7008C37.3821 14.0335 37.4966 14.4247 37.4966 14.8249C37.4966 15.3615 37.2909 15.8761 36.9246 16.2555C36.5583 16.635 36.0615 16.8481 35.5435 16.8481Z" fill="#7846BE"/>
</svg>
